<svg width="211" height="96" viewBox="0 0 211 96" fill="none" xmlns="http://www.w3.org/2000/svg">
<path d="M142.273 33.3641C130.839 33.3641 122.058 42.6149 122.058 54.6777C122.058 66.7405 130.16 75.0785 142.193 75.0785C150.754 75.0785 155.823 71.8928 160.359 65.2763L153.322 60.4978C150.747 64.29 148.1 66.4097 142.927 66.4097C137.253 66.4097 133.694 62.3173 132.936 56.8587H160.94C161.269 55.183 161.447 53.4813 161.472 51.7738C161.497 41.1752 153.322 33.3641 142.273 33.3641ZM133.492 49.5193C134.623 45.041 137.424 41.7817 142.572 41.7817C146.963 41.7817 150.295 44.7408 150.521 49.5193H133.492Z" fill="#299B58"/>
<path d="M100.621 33.3641C96.7623 33.3641 91.7667 34.7303 88.8929 38.4428V21.6689H78.1375V74.1779H88.8929V70.2325C91.8707 73.8409 96.6889 75.0785 100.541 75.0785C111.29 75.0785 119.16 65.5948 119.16 54.3714C119.16 42.7681 111.217 33.3641 100.621 33.3641ZM98.1197 65.8338C96.3552 65.8846 94.6031 65.5236 93.0018 64.7793C91.4004 64.035 89.9938 62.9279 88.8929 61.5453V47.9203C89.8323 46.2696 91.2004 44.9047 92.8519 43.9706C94.5034 43.0364 96.3766 42.5679 98.2726 42.6149C104.479 42.6149 108.19 48.1286 108.19 54.0712C108.19 59.6829 105.011 65.8215 98.1197 65.8215V65.8338Z" fill="#299B58"/>
<path d="M186.731 64.7617C185.41 65.491 183.929 65.8824 182.421 65.9012C180.146 65.9012 179.241 64.4615 178.935 62.109C178.819 61.1108 178.77 60.1058 178.789 59.1009V43.2214H188.939V34.3076H178.789V21.6689H168.033V34.3076H163.258V43.252H168.021V60.461C167.988 62.5015 168.239 64.5366 168.767 66.5077C170.21 71.6661 174.374 75.0846 180.58 75.0846C183.878 75.0866 187.126 74.2789 190.039 72.7321L186.731 64.7617Z" fill="#299B58"/>
<path d="M44.8744 21.2155C37.8997 22.1254 31.558 25.7357 27.2076 31.2732C22.8573 36.8107 20.8442 43.8349 21.5997 50.8413C22.3552 57.8477 25.8191 64.2791 31.2495 68.7578C36.6799 73.2366 43.645 75.4065 50.6527 74.8028C54.5884 74.3893 58.3821 73.1 61.7566 71.029L54.0585 63.3097C50.5539 64.7684 46.6548 64.9729 43.0175 63.8887C39.3801 62.8045 36.2266 60.4979 34.0877 57.3572C31.9489 54.2164 30.9552 50.4332 31.2741 46.6444C31.5929 42.8556 33.2048 39.2926 35.8384 36.555C38.472 33.8174 41.9665 32.0724 45.7336 31.6138C49.5008 31.1552 53.3107 32.011 56.522 34.037C59.7332 36.0631 62.1498 39.1357 63.3649 42.7377C64.58 46.3398 64.5195 50.2513 63.1935 53.8139L49.9923 40.6238V55.2107L68.9962 74.2453V64.4431C72.1991 60.2636 74.1091 55.2351 74.4901 49.9795C74.871 44.7239 73.7062 39.4717 71.1397 34.8723C68.5731 30.273 64.7174 26.5281 60.0493 24.1009C55.3812 21.6737 50.1055 20.6706 44.8744 21.2155Z" fill="#299B58"/>
<g style="mix-blend-mode:multiply" opacity="0.4">
<path style="mix-blend-mode:multiply" opacity="0.4" d="M49.9923 40.6238V55.2106L68.9962 74.2452L49.9923 40.6238Z" fill="url(#paint0_linear_105_202)"/>
</g>
<defs>
<linearGradient id="paint0_linear_105_202" x1="49.9923" y1="57.4345" x2="68.9962" y2="57.4345" gradientUnits="userSpaceOnUse">
<stop stop-color="#4A4A4A"/>
<stop offset="0.2" stop-color="#898989"/>
<stop offset="0.39" stop-color="#BCBCBC"/>
<stop offset="0.56" stop-color="#E0E0E0"/>
<stop offset="0.69" stop-color="#F7F7F7"/>
<stop offset="0.78" stop-color="white"/>
</linearGradient>
</defs>
</svg>
