<svg width="146" height="21" viewBox="0 0 146 21" fill="none" xmlns="http://www.w3.org/2000/svg">
<path d="M7.782 18.72C6.31533 18.72 5.098 18.5147 4.13 18.104C3.162 17.6787 2.42867 17.1287 1.93 16.454C1.43133 15.7793 1.16733 15.0607 1.138 14.298C1.138 14.1807 1.182 14.078 1.27 13.99C1.37267 13.8873 1.49 13.836 1.622 13.836H4.394C4.59933 13.836 4.75333 13.8727 4.856 13.946C4.97333 14.0193 5.076 14.1147 5.164 14.232C5.28133 14.452 5.44267 14.6647 5.648 14.87C5.868 15.0753 6.14667 15.244 6.484 15.376C6.836 15.4933 7.26867 15.552 7.782 15.552C8.63267 15.552 9.27067 15.42 9.696 15.156C10.136 14.892 10.356 14.5327 10.356 14.078C10.356 13.7553 10.2387 13.4913 10.004 13.286C9.76933 13.066 9.388 12.8753 8.86 12.714C8.34667 12.538 7.65733 12.362 6.792 12.186C5.67733 11.9513 4.724 11.6507 3.932 11.284C3.15467 10.9027 2.56067 10.4113 2.15 9.81C1.73933 9.194 1.534 8.43133 1.534 7.522C1.534 6.62733 1.78333 5.828 2.282 5.124C2.79533 4.42 3.50667 3.87 4.416 3.474C5.32533 3.078 6.40333 2.88 7.65 2.88C8.662 2.88 9.54933 3.012 10.312 3.276C11.0893 3.54 11.742 3.892 12.27 4.332C12.798 4.772 13.194 5.24133 13.458 5.74C13.7367 6.224 13.8833 6.70067 13.898 7.17C13.898 7.28733 13.854 7.39733 13.766 7.5C13.678 7.588 13.568 7.632 13.436 7.632H10.532C10.3707 7.632 10.2313 7.60267 10.114 7.544C9.99667 7.48533 9.894 7.39 9.806 7.258C9.718 6.93533 9.48333 6.65667 9.102 6.422C8.73533 6.17267 8.25133 6.048 7.65 6.048C7.00467 6.048 6.49867 6.16533 6.132 6.4C5.78 6.62 5.604 6.96467 5.604 7.434C5.604 7.72733 5.69933 7.984 5.89 8.204C6.09533 8.424 6.42533 8.61467 6.88 8.776C7.34933 8.93733 7.98733 9.106 8.794 9.282C10.1287 9.53133 11.2067 9.84667 12.028 10.228C12.8493 10.5947 13.4507 11.0787 13.832 11.68C14.2133 12.2667 14.404 13.0073 14.404 13.902C14.404 14.8993 14.118 15.7647 13.546 16.498C12.9887 17.2167 12.2113 17.7667 11.214 18.148C10.2167 18.5293 9.07267 18.72 7.782 18.72ZM17.1564 18.5C16.9951 18.5 16.8631 18.4487 16.7604 18.346C16.6577 18.2433 16.6064 18.1113 16.6064 17.95V3.65C16.6064 3.48867 16.6577 3.35667 16.7604 3.254C16.8631 3.15133 16.9951 3.1 17.1564 3.1H23.3164C24.5337 3.1 25.5897 3.29067 26.4844 3.672C27.3937 4.03867 28.0977 4.596 28.5964 5.344C29.1097 6.092 29.3664 7.038 29.3664 8.182C29.3664 9.31133 29.1097 10.2427 28.5964 10.976C28.0977 11.7093 27.3937 12.252 26.4844 12.604C25.5897 12.956 24.5337 13.132 23.3164 13.132H20.6984V17.95C20.6984 18.1113 20.6397 18.2433 20.5224 18.346C20.4197 18.4487 20.2877 18.5 20.1264 18.5H17.1564ZM20.6324 10.096H23.2064C23.8371 10.096 24.3357 9.93467 24.7024 9.612C25.0837 9.28933 25.2744 8.798 25.2744 8.138C25.2744 7.58067 25.1131 7.11133 24.7904 6.73C24.4677 6.34867 23.9397 6.158 23.2064 6.158H20.6324V10.096ZM32.0236 18.5C31.8623 18.5 31.7303 18.4487 31.6276 18.346C31.5249 18.2433 31.4736 18.1113 31.4736 17.95V3.65C31.4736 3.48867 31.5249 3.35667 31.6276 3.254C31.7303 3.15133 31.8623 3.1 32.0236 3.1H34.9716C35.1329 3.1 35.2649 3.15133 35.3676 3.254C35.4703 3.35667 35.5216 3.48867 35.5216 3.65V17.95C35.5216 18.1113 35.4703 18.2433 35.3676 18.346C35.2649 18.4487 35.1329 18.5 34.9716 18.5H32.0236ZM39.1564 18.5C38.9951 18.5 38.8631 18.4487 38.7604 18.346C38.6577 18.2433 38.6064 18.1113 38.6064 17.95V3.65C38.6064 3.48867 38.6577 3.35667 38.7604 3.254C38.8631 3.15133 38.9951 3.1 39.1564 3.1H41.4884C41.7377 3.1 41.9137 3.15867 42.0164 3.276C42.1337 3.37867 42.2071 3.45933 42.2364 3.518L47.6044 11.988V3.65C47.6044 3.48867 47.6557 3.35667 47.7584 3.254C47.8611 3.15133 47.9931 3.1 48.1544 3.1H50.7944C50.9557 3.1 51.0877 3.15133 51.1904 3.254C51.2931 3.35667 51.3444 3.48867 51.3444 3.65V17.95C51.3444 18.0967 51.2931 18.2287 51.1904 18.346C51.0877 18.4487 50.9557 18.5 50.7944 18.5H48.4404C48.2057 18.5 48.0297 18.4413 47.9124 18.324C47.8097 18.2067 47.7437 18.126 47.7144 18.082L42.3464 9.942V17.95C42.3464 18.1113 42.2951 18.2433 42.1924 18.346C42.0897 18.4487 41.9577 18.5 41.7964 18.5H39.1564Z" fill="url(#paint0_linear_1_5)"/>
<path d="M55.59 18.5C55.4287 18.5 55.2967 18.4487 55.194 18.346C55.0913 18.2433 55.04 18.1113 55.04 17.95V3.65C55.04 3.48867 55.0913 3.35667 55.194 3.254C55.2967 3.15133 55.4287 3.1 55.59 3.1H62.3C63.5613 3.1 64.5953 3.276 65.402 3.628C66.2087 3.98 66.8027 4.486 67.184 5.146C67.58 5.79133 67.778 6.56133 67.778 7.456C67.778 7.984 67.6753 8.45333 67.47 8.864C67.2793 9.26 67.0373 9.59 66.744 9.854C66.4653 10.118 66.2013 10.3087 65.952 10.426C66.5093 10.69 67.0007 11.1227 67.426 11.724C67.866 12.3253 68.086 13.0293 68.086 13.836C68.086 14.804 67.866 15.64 67.426 16.344C67.0007 17.0333 66.37 17.5687 65.534 17.95C64.7127 18.3167 63.7007 18.5 62.498 18.5H55.59ZM58.978 15.64H62.058C62.6887 15.64 63.1653 15.4567 63.488 15.09C63.8107 14.7233 63.972 14.3053 63.972 13.836C63.972 13.3227 63.8033 12.89 63.466 12.538C63.1433 12.186 62.674 12.01 62.058 12.01H58.978V15.64ZM58.978 9.216H61.86C62.4613 9.216 62.9087 9.062 63.202 8.754C63.51 8.446 63.664 8.05 63.664 7.566C63.664 7.09667 63.51 6.71533 63.202 6.422C62.9087 6.114 62.4613 5.96 61.86 5.96H58.978V9.216ZM76.8222 18.72C75.4729 18.72 74.2996 18.5 73.3022 18.06C72.3049 17.62 71.5276 16.96 70.9702 16.08C70.4129 15.1853 70.1049 14.0707 70.0462 12.736C70.0316 12.1053 70.0242 11.4747 70.0242 10.844C70.0242 10.2133 70.0316 9.57533 70.0462 8.93C70.1049 7.61 70.4129 6.50267 70.9702 5.608C71.5422 4.69867 72.3269 4.01667 73.3242 3.562C74.3216 3.10733 75.4876 2.88 76.8222 2.88C78.1422 2.88 79.3009 3.10733 80.2982 3.562C81.3102 4.01667 82.1022 4.69867 82.6742 5.608C83.2462 6.50267 83.5542 7.61 83.5982 8.93C83.6276 9.57533 83.6422 10.2133 83.6422 10.844C83.6422 11.4747 83.6276 12.1053 83.5982 12.736C83.5396 14.0707 83.2316 15.1853 82.6742 16.08C82.1169 16.96 81.3396 17.62 80.3422 18.06C79.3449 18.5 78.1716 18.72 76.8222 18.72ZM76.8222 15.552C77.5996 15.552 78.2302 15.3173 78.7142 14.848C79.2129 14.3787 79.4769 13.6307 79.5062 12.604C79.5356 11.9587 79.5502 11.35 79.5502 10.778C79.5502 10.206 79.5356 9.612 79.5062 8.996C79.4769 8.30667 79.3449 7.74933 79.1102 7.324C78.8902 6.884 78.5822 6.56133 78.1862 6.356C77.7902 6.15067 77.3356 6.048 76.8222 6.048C76.3236 6.048 75.8762 6.15067 75.4802 6.356C75.0842 6.56133 74.7689 6.884 74.5342 7.324C74.2996 7.74933 74.1676 8.30667 74.1382 8.996C74.1236 9.612 74.1162 10.206 74.1162 10.778C74.1162 11.35 74.1236 11.9587 74.1382 12.604C74.1822 13.6307 74.4462 14.3787 74.9302 14.848C75.4142 15.3173 76.0449 15.552 76.8222 15.552ZM92.6383 18.72C91.3183 18.72 90.1597 18.5073 89.1623 18.082C88.1797 17.642 87.417 16.9747 86.8743 16.08C86.3317 15.1707 86.0603 14.0193 86.0603 12.626V3.65C86.0603 3.48867 86.1117 3.35667 86.2143 3.254C86.317 3.15133 86.449 3.1 86.6103 3.1H89.4483C89.6097 3.1 89.7417 3.15133 89.8443 3.254C89.947 3.35667 89.9983 3.48867 89.9983 3.65V12.604C89.9983 13.5573 90.2257 14.276 90.6803 14.76C91.1497 15.2293 91.8023 15.464 92.6383 15.464C93.4597 15.464 94.0977 15.2293 94.5523 14.76C95.0217 14.276 95.2563 13.5573 95.2563 12.604V3.65C95.2563 3.48867 95.3077 3.35667 95.4103 3.254C95.5277 3.15133 95.6597 3.1 95.8063 3.1H98.6663C98.813 3.1 98.9377 3.15133 99.0403 3.254C99.1577 3.35667 99.2163 3.48867 99.2163 3.65V12.626C99.2163 14.0193 98.945 15.1707 98.4023 16.08C97.8597 16.9747 97.097 17.642 96.1143 18.082C95.1317 18.5073 93.973 18.72 92.6383 18.72ZM102.684 18.5C102.522 18.5 102.39 18.4487 102.288 18.346C102.185 18.2433 102.134 18.1113 102.134 17.95V3.65C102.134 3.48867 102.185 3.35667 102.288 3.254C102.39 3.15133 102.522 3.1 102.684 3.1H105.016C105.265 3.1 105.441 3.15867 105.544 3.276C105.661 3.37867 105.734 3.45933 105.764 3.518L111.132 11.988V3.65C111.132 3.48867 111.183 3.35667 111.286 3.254C111.388 3.15133 111.52 3.1 111.682 3.1H114.322C114.483 3.1 114.615 3.15133 114.718 3.254C114.82 3.35667 114.872 3.48867 114.872 3.65V17.95C114.872 18.0967 114.82 18.2287 114.718 18.346C114.615 18.4487 114.483 18.5 114.322 18.5H111.968C111.733 18.5 111.557 18.4413 111.44 18.324C111.337 18.2067 111.271 18.126 111.242 18.082L105.874 9.942V17.95C105.874 18.1113 105.822 18.2433 105.72 18.346C105.617 18.4487 105.485 18.5 105.324 18.5H102.684ZM121.884 18.5C121.723 18.5 121.591 18.4487 121.488 18.346C121.386 18.2433 121.334 18.1113 121.334 17.95V6.554H117.418C117.257 6.554 117.125 6.50267 117.022 6.4C116.92 6.28267 116.868 6.15067 116.868 6.004V3.65C116.868 3.48867 116.92 3.35667 117.022 3.254C117.125 3.15133 117.257 3.1 117.418 3.1H129.254C129.416 3.1 129.548 3.15133 129.65 3.254C129.753 3.35667 129.804 3.48867 129.804 3.65V6.004C129.804 6.15067 129.753 6.28267 129.65 6.4C129.548 6.50267 129.416 6.554 129.254 6.554H125.338V17.95C125.338 18.1113 125.287 18.2433 125.184 18.346C125.082 18.4487 124.95 18.5 124.788 18.5H121.884ZM136.314 18.5C136.167 18.5 136.035 18.4487 135.918 18.346C135.815 18.2433 135.764 18.1113 135.764 17.95V13.22L130.66 3.804C130.645 3.76 130.63 3.72333 130.616 3.694C130.601 3.65 130.594 3.606 130.594 3.562C130.594 3.44467 130.638 3.342 130.726 3.254C130.828 3.15133 130.946 3.1 131.078 3.1H133.828C134.048 3.1 134.216 3.15867 134.334 3.276C134.466 3.37867 134.546 3.474 134.576 3.562L137.744 9.238L140.912 3.562C140.956 3.474 141.036 3.37867 141.154 3.276C141.286 3.15867 141.462 3.1 141.682 3.1H144.432C144.564 3.1 144.674 3.15133 144.762 3.254C144.85 3.342 144.894 3.44467 144.894 3.562C144.894 3.606 144.886 3.65 144.872 3.694C144.872 3.72333 144.864 3.76 144.85 3.804L139.724 13.22V17.95C139.724 18.1113 139.672 18.2433 139.57 18.346C139.467 18.4487 139.335 18.5 139.174 18.5H136.314Z" fill="black" fill-opacity="0.87"/>
<defs>
<linearGradient id="paint0_linear_1_5" x1="27" y1="0.5" x2="27" y2="20.5" gradientUnits="userSpaceOnUse">
<stop stop-color="#55B2FF"/>
<stop offset="1" stop-color="#0079DD"/>
</linearGradient>
</defs>
</svg>
